<svg width="901" height="560" viewBox="0 0 901 560" fill="none" xmlns="http://www.w3.org/2000/svg">
<path d="M19.9108 536V534.812C20.8468 534.132 21.6748 533.496 22.3948 532.904C23.1148 532.304 23.6788 531.74 24.0868 531.212C24.4948 530.676 24.6988 530.16 24.6988 529.664C24.6988 529.232 24.5628 528.892 24.2908 528.644C24.0268 528.396 23.6708 528.272 23.2228 528.272C22.9428 528.272 22.6708 528.328 22.4068 528.44C22.1508 528.552 21.9388 528.744 21.7708 529.016C21.6108 529.28 21.5268 529.652 21.5188 530.132H20.0668C20.0668 529.508 20.1988 528.976 20.4628 528.536C20.7348 528.088 21.1108 527.744 21.5908 527.504C22.0708 527.264 22.6308 527.144 23.2708 527.144C23.8308 527.144 24.3268 527.24 24.7588 527.432C25.1988 527.616 25.5428 527.884 25.7908 528.236C26.0468 528.588 26.1748 529.02 26.1748 529.532C26.1748 530.172 25.9788 530.788 25.5868 531.38C25.2028 531.964 24.6788 532.536 24.0148 533.096C23.3588 533.648 22.6188 534.2 21.7948 534.752H26.3308V536H19.9108ZM30.9299 536.156C30.1379 536.156 29.4819 535.972 28.9619 535.604C28.4419 535.236 28.0539 534.716 27.7979 534.044C27.5419 533.364 27.4139 532.564 27.4139 531.644C27.4139 530.724 27.5419 529.928 27.7979 529.256C28.0539 528.584 28.4419 528.064 28.9619 527.696C29.4819 527.328 30.1379 527.144 30.9299 527.144C31.7219 527.144 32.3779 527.328 32.8979 527.696C33.4179 528.064 33.8059 528.584 34.0619 529.256C34.3179 529.928 34.4459 530.724 34.4459 531.644C34.4459 532.564 34.3179 533.364 34.0619 534.044C33.8059 534.716 33.4179 535.236 32.8979 535.604C32.3779 535.972 31.7219 536.156 30.9299 536.156ZM30.9299 535.04C31.5459 535.04 32.0379 534.764 32.4059 534.212C32.7739 533.652 32.9579 532.796 32.9579 531.644C32.9579 530.5 32.7739 529.652 32.4059 529.1C32.0379 528.548 31.5459 528.272 30.9299 528.272C30.3139 528.272 29.8219 528.548 29.4539 529.1C29.0859 529.652 28.9019 530.5 28.9019 531.644C28.9019 532.796 29.0859 533.652 29.4539 534.212C29.8219 534.764 30.3139 535.04 30.9299 535.04ZM37.2136 536V529.556H35.2096V528.548C35.6496 528.532 36.0176 528.488 36.3136 528.416C36.6176 528.336 36.8736 528.208 37.0816 528.032C37.2896 527.856 37.4656 527.612 37.6096 527.3H38.6416V536H37.2136ZM44.3033 536V533.972H40.0193V532.748L44.3513 527.3H45.7433V532.664H47.1953V533.972H45.7433V536H44.3033ZM41.5913 532.664H44.3033V529.208L41.5913 532.664Z" fill="#6E6E6E"/>
<path d="M94.651 536V534.812C95.587 534.132 96.415 533.496 97.135 532.904C97.855 532.304 98.419 531.74 98.827 531.212C99.235 530.676 99.439 530.16 99.439 529.664C99.439 529.232 99.303 528.892 99.031 528.644C98.767 528.396 98.411 528.272 97.963 528.272C97.683 528.272 97.411 528.328 97.147 528.44C96.891 528.552 96.679 528.744 96.511 529.016C96.351 529.28 96.267 529.652 96.259 530.132H94.807C94.807 529.508 94.939 528.976 95.203 528.536C95.475 528.088 95.851 527.744 96.331 527.504C96.811 527.264 97.371 527.144 98.011 527.144C98.571 527.144 99.067 527.24 99.499 527.432C99.939 527.616 100.283 527.884 100.531 528.236C100.787 528.588 100.915 529.02 100.915 529.532C100.915 530.172 100.719 530.788 100.327 531.38C99.943 531.964 99.419 532.536 98.755 533.096C98.099 533.648 97.359 534.2 96.535 534.752H101.071V536H94.651ZM105.67 536.156C104.878 536.156 104.222 535.972 103.702 535.604C103.182 535.236 102.794 534.716 102.538 534.044C102.282 533.364 102.154 532.564 102.154 531.644C102.154 530.724 102.282 529.928 102.538 529.256C102.794 528.584 103.182 528.064 103.702 527.696C104.222 527.328 104.878 527.144 105.67 527.144C106.462 527.144 107.118 527.328 107.638 527.696C108.158 528.064 108.546 528.584 108.802 529.256C109.058 529.928 109.186 530.724 109.186 531.644C109.186 532.564 109.058 533.364 108.802 534.044C108.546 534.716 108.158 535.236 107.638 535.604C107.118 535.972 106.462 536.156 105.67 536.156ZM105.67 535.04C106.286 535.04 106.778 534.764 107.146 534.212C107.514 533.652 107.698 532.796 107.698 531.644C107.698 530.5 107.514 529.652 107.146 529.1C106.778 528.548 106.286 528.272 105.67 528.272C105.054 528.272 104.562 528.548 104.194 529.1C103.826 529.652 103.642 530.5 103.642 531.644C103.642 532.796 103.826 533.652 104.194 534.212C104.562 534.764 105.054 535.04 105.67 535.04ZM111.954 536V529.556H109.95V528.548C110.39 528.532 110.758 528.488 111.054 528.416C111.358 528.336 111.614 528.208 111.822 528.032C112.03 527.856 112.206 527.612 112.35 527.3H113.382V536H111.954ZM116.812 528.548L116.548 530.696C116.764 530.504 117.036 530.36 117.364 530.264C117.692 530.16 118.024 530.108 118.36 530.108C118.872 530.108 119.352 530.224 119.8 530.456C120.248 530.688 120.608 531.028 120.88 531.476C121.16 531.924 121.3 532.476 121.3 533.132C121.3 533.796 121.148 534.352 120.844 534.8C120.54 535.248 120.14 535.588 119.644 535.82C119.148 536.044 118.608 536.156 118.024 536.156C117.384 536.156 116.832 536.04 116.368 535.808C115.912 535.568 115.548 535.24 115.276 534.824C115.012 534.408 114.844 533.94 114.772 533.42H116.2C116.368 534.5 116.976 535.04 118.024 535.04C118.352 535.04 118.648 534.968 118.912 534.824C119.184 534.672 119.4 534.456 119.56 534.176C119.728 533.888 119.812 533.544 119.812 533.144C119.812 532.704 119.724 532.348 119.548 532.076C119.372 531.796 119.148 531.592 118.876 531.464C118.604 531.328 118.32 531.26 118.024 531.26C117.616 531.26 117.276 531.356 117.004 531.548C116.732 531.732 116.536 531.944 116.416 532.184L115.048 532.076L115.636 527.3H120.94V528.548H116.812Z" fill="#6E6E6E"/>
<path d="M169.569 536V534.812C170.505 534.132 171.333 533.496 172.053 532.904C172.773 532.304 173.337 531.74 173.745 531.212C174.153 530.676 174.357 530.16 174.357 529.664C174.357 529.232 174.221 528.892 173.949 528.644C173.685 528.396 173.329 528.272 172.881 528.272C172.601 528.272 172.329 528.328 172.065 528.44C171.809 528.552 171.597 528.744 171.429 529.016C171.269 529.28 171.185 529.652 171.177 530.132H169.725C169.725 529.508 169.857 528.976 170.121 528.536C170.393 528.088 170.769 527.744 171.249 527.504C171.729 527.264 172.289 527.144 172.929 527.144C173.489 527.144 173.985 527.24 174.417 527.432C174.857 527.616 175.201 527.884 175.449 528.236C175.705 528.588 175.833 529.02 175.833 529.532C175.833 530.172 175.637 530.788 175.245 531.38C174.861 531.964 174.337 532.536 173.673 533.096C173.017 533.648 172.277 534.2 171.453 534.752H175.989V536H169.569ZM180.588 536.156C179.796 536.156 179.14 535.972 178.62 535.604C178.1 535.236 177.712 534.716 177.456 534.044C177.2 533.364 177.072 532.564 177.072 531.644C177.072 530.724 177.2 529.928 177.456 529.256C177.712 528.584 178.1 528.064 178.62 527.696C179.14 527.328 179.796 527.144 180.588 527.144C181.38 527.144 182.036 527.328 182.556 527.696C183.076 528.064 183.464 528.584 183.72 529.256C183.976 529.928 184.104 530.724 184.104 531.644C184.104 532.564 183.976 533.364 183.72 534.044C183.464 534.716 183.076 535.236 182.556 535.604C182.036 535.972 181.38 536.156 180.588 536.156ZM180.588 535.04C181.204 535.04 181.696 534.764 182.064 534.212C182.432 533.652 182.616 532.796 182.616 531.644C182.616 530.5 182.432 529.652 182.064 529.1C181.696 528.548 181.204 528.272 180.588 528.272C179.972 528.272 179.48 528.548 179.112 529.1C178.744 529.652 178.56 530.5 178.56 531.644C178.56 532.796 178.744 533.652 179.112 534.212C179.48 534.764 179.972 535.04 180.588 535.04ZM186.872 536V529.556H184.868V528.548C185.308 528.532 185.676 528.488 185.972 528.416C186.276 528.336 186.532 528.208 186.74 528.032C186.948 527.856 187.124 527.612 187.268 527.3H188.3V536H186.872ZM193.134 536.156C192.374 536.156 191.75 535.984 191.262 535.64C190.782 535.288 190.426 534.796 190.194 534.164C189.962 533.532 189.846 532.784 189.846 531.92C189.846 531.296 189.91 530.7 190.038 530.132C190.166 529.556 190.366 529.044 190.638 528.596C190.918 528.148 191.282 527.796 191.73 527.54C192.178 527.276 192.722 527.144 193.362 527.144C193.978 527.144 194.486 527.252 194.886 527.468C195.286 527.684 195.594 527.968 195.81 528.32C196.026 528.664 196.158 529.04 196.206 529.448H194.73C194.674 529.048 194.51 528.752 194.238 528.56C193.974 528.36 193.642 528.26 193.242 528.26C192.65 528.26 192.186 528.52 191.85 529.04C191.514 529.56 191.338 530.276 191.322 531.188C191.53 530.892 191.806 530.648 192.15 530.456C192.502 530.264 192.938 530.168 193.458 530.168C193.994 530.168 194.478 530.296 194.91 530.552C195.342 530.8 195.686 531.148 195.942 531.596C196.198 532.044 196.326 532.564 196.326 533.156C196.326 533.716 196.19 534.224 195.918 534.68C195.654 535.136 195.282 535.496 194.802 535.76C194.33 536.024 193.774 536.156 193.134 536.156ZM193.134 535.04C193.638 535.04 194.046 534.868 194.358 534.524C194.678 534.18 194.838 533.736 194.838 533.192C194.838 532.648 194.682 532.2 194.37 531.848C194.058 531.496 193.646 531.32 193.134 531.32C192.622 531.32 192.206 531.496 191.886 531.848C191.574 532.192 191.418 532.64 191.418 533.192C191.418 533.736 191.574 534.18 191.886 534.524C192.198 534.868 192.614 535.04 193.134 535.04Z" fill="#6E6E6E"/>
<path d="M245.544 536V534.812C246.48 534.132 247.308 533.496 248.028 532.904C248.748 532.304 249.312 531.74 249.72 531.212C250.128 530.676 250.332 530.16 250.332 529.664C250.332 529.232 250.196 528.892 249.924 528.644C249.66 528.396 249.304 528.272 248.856 528.272C248.576 528.272 248.304 528.328 248.04 528.44C247.784 528.552 247.572 528.744 247.404 529.016C247.244 529.28 247.16 529.652 247.152 530.132H245.7C245.7 529.508 245.832 528.976 246.096 528.536C246.368 528.088 246.744 527.744 247.224 527.504C247.704 527.264 248.264 527.144 248.904 527.144C249.464 527.144 249.96 527.24 250.392 527.432C250.832 527.616 251.176 527.884 251.424 528.236C251.68 528.588 251.808 529.02 251.808 529.532C251.808 530.172 251.612 530.788 251.22 531.38C250.836 531.964 250.312 532.536 249.648 533.096C248.992 533.648 248.252 534.2 247.428 534.752H251.964V536H245.544ZM256.563 536.156C255.771 536.156 255.115 535.972 254.595 535.604C254.075 535.236 253.687 534.716 253.431 534.044C253.175 533.364 253.047 532.564 253.047 531.644C253.047 530.724 253.175 529.928 253.431 529.256C253.687 528.584 254.075 528.064 254.595 527.696C255.115 527.328 255.771 527.144 256.563 527.144C257.355 527.144 258.011 527.328 258.531 527.696C259.051 528.064 259.439 528.584 259.695 529.256C259.951 529.928 260.079 530.724 260.079 531.644C260.079 532.564 259.951 533.364 259.695 534.044C259.439 534.716 259.051 535.236 258.531 535.604C258.011 535.972 257.355 536.156 256.563 536.156ZM256.563 535.04C257.179 535.04 257.671 534.764 258.039 534.212C258.407 533.652 258.591 532.796 258.591 531.644C258.591 530.5 258.407 529.652 258.039 529.1C257.671 528.548 257.179 528.272 256.563 528.272C255.947 528.272 255.455 528.548 255.087 529.1C254.719 529.652 254.535 530.5 254.535 531.644C254.535 532.796 254.719 533.652 255.087 534.212C255.455 534.764 255.947 535.04 256.563 535.04ZM262.846 536V529.556H260.842V528.548C261.282 528.532 261.65 528.488 261.946 528.416C262.25 528.336 262.506 528.208 262.714 528.032C262.922 527.856 263.098 527.612 263.242 527.3H264.274V536H262.846ZM268.052 536H266.432C266.496 534.424 266.86 533.008 267.524 531.752C268.188 530.496 269.052 529.428 270.116 528.548H265.484V527.3H271.688V528.548C270.56 529.476 269.692 530.54 269.084 531.74C268.476 532.94 268.132 534.36 268.052 536Z" fill="#6E6E6E"/>
<path d="M319.505 536V534.812C320.441 534.132 321.269 533.496 321.989 532.904C322.709 532.304 323.273 531.74 323.681 531.212C324.089 530.676 324.293 530.16 324.293 529.664C324.293 529.232 324.157 528.892 323.885 528.644C323.621 528.396 323.265 528.272 322.817 528.272C322.537 528.272 322.265 528.328 322.001 528.44C321.745 528.552 321.533 528.744 321.365 529.016C321.205 529.28 321.121 529.652 321.113 530.132H319.661C319.661 529.508 319.793 528.976 320.057 528.536C320.329 528.088 320.705 527.744 321.185 527.504C321.665 527.264 322.225 527.144 322.865 527.144C323.425 527.144 323.921 527.24 324.353 527.432C324.793 527.616 325.137 527.884 325.385 528.236C325.641 528.588 325.769 529.02 325.769 529.532C325.769 530.172 325.573 530.788 325.181 531.38C324.797 531.964 324.273 532.536 323.609 533.096C322.953 533.648 322.213 534.2 321.389 534.752H325.925V536H319.505ZM330.524 536.156C329.732 536.156 329.076 535.972 328.556 535.604C328.036 535.236 327.648 534.716 327.392 534.044C327.136 533.364 327.008 532.564 327.008 531.644C327.008 530.724 327.136 529.928 327.392 529.256C327.648 528.584 328.036 528.064 328.556 527.696C329.076 527.328 329.732 527.144 330.524 527.144C331.316 527.144 331.972 527.328 332.492 527.696C333.012 528.064 333.4 528.584 333.656 529.256C333.912 529.928 334.04 530.724 334.04 531.644C334.04 532.564 333.912 533.364 333.656 534.044C333.4 534.716 333.012 535.236 332.492 535.604C331.972 535.972 331.316 536.156 330.524 536.156ZM330.524 535.04C331.14 535.04 331.632 534.764 332 534.212C332.368 533.652 332.552 532.796 332.552 531.644C332.552 530.5 332.368 529.652 332 529.1C331.632 528.548 331.14 528.272 330.524 528.272C329.908 528.272 329.416 528.548 329.048 529.1C328.68 529.652 328.496 530.5 328.496 531.644C328.496 532.796 328.68 533.652 329.048 534.212C329.416 534.764 329.908 535.04 330.524 535.04ZM336.807 536V529.556H334.803V528.548C335.243 528.532 335.611 528.488 335.907 528.416C336.211 528.336 336.467 528.208 336.675 528.032C336.883 527.856 337.059 527.612 337.203 527.3H338.235V536H336.807ZM343.081 536.156C342.457 536.156 341.893 536.052 341.389 535.844C340.885 535.636 340.485 535.336 340.189 534.944C339.901 534.544 339.757 534.064 339.757 533.504C339.757 533.104 339.853 532.708 340.045 532.316C340.237 531.916 340.593 531.592 341.113 531.344C340.737 531.12 340.461 530.84 340.285 530.504C340.109 530.168 340.021 529.804 340.021 529.412C340.021 528.98 340.145 528.592 340.393 528.248C340.641 527.904 340.993 527.636 341.449 527.444C341.913 527.244 342.457 527.144 343.081 527.144C343.705 527.144 344.245 527.244 344.701 527.444C345.157 527.636 345.509 527.904 345.757 528.248C346.005 528.592 346.129 528.98 346.129 529.412C346.129 529.804 346.041 530.168 345.865 530.504C345.689 530.84 345.413 531.12 345.037 531.344C345.557 531.592 345.913 531.916 346.105 532.316C346.297 532.708 346.393 533.104 346.393 533.504C346.393 534.064 346.245 534.544 345.949 534.944C345.661 535.336 345.265 535.636 344.761 535.844C344.265 536.052 343.705 536.156 343.081 536.156ZM343.081 535.04C343.649 535.04 344.093 534.892 344.413 534.596C344.741 534.3 344.905 533.928 344.905 533.48C344.905 533.024 344.741 532.648 344.413 532.352C344.093 532.056 343.649 531.908 343.081 531.908C342.513 531.908 342.065 532.056 341.737 532.352C341.409 532.648 341.245 533.024 341.245 533.48C341.245 533.928 341.409 534.3 341.737 534.596C342.065 534.892 342.513 535.04 343.081 535.04ZM343.081 530.924C343.585 530.924 343.981 530.796 344.269 530.54C344.557 530.284 344.701 529.96 344.701 529.568C344.701 529.184 344.557 528.872 344.269 528.632C343.981 528.392 343.585 528.272 343.081 528.272C342.569 528.272 342.165 528.392 341.869 528.632C341.581 528.872 341.437 529.184 341.437 529.568C341.437 529.96 341.581 530.284 341.869 530.54C342.165 530.796 342.569 530.924 343.081 530.924Z" fill="#6E6E6E"/>
<path d="M395.569 536V534.812C396.505 534.132 397.333 533.496 398.053 532.904C398.773 532.304 399.337 531.74 399.745 531.212C400.153 530.676 400.357 530.16 400.357 529.664C400.357 529.232 400.221 528.892 399.949 528.644C399.685 528.396 399.329 528.272 398.881 528.272C398.601 528.272 398.329 528.328 398.065 528.44C397.809 528.552 397.597 528.744 397.429 529.016C397.269 529.28 397.185 529.652 397.177 530.132H395.725C395.725 529.508 395.857 528.976 396.121 528.536C396.393 528.088 396.769 527.744 397.249 527.504C397.729 527.264 398.289 527.144 398.929 527.144C399.489 527.144 399.985 527.24 400.417 527.432C400.857 527.616 401.201 527.884 401.449 528.236C401.705 528.588 401.833 529.02 401.833 529.532C401.833 530.172 401.637 530.788 401.245 531.38C400.861 531.964 400.337 532.536 399.673 533.096C399.017 533.648 398.277 534.2 397.453 534.752H401.989V536H395.569ZM406.588 536.156C405.796 536.156 405.14 535.972 404.62 535.604C404.1 535.236 403.712 534.716 403.456 534.044C403.2 533.364 403.072 532.564 403.072 531.644C403.072 530.724 403.2 529.928 403.456 529.256C403.712 528.584 404.1 528.064 404.62 527.696C405.14 527.328 405.796 527.144 406.588 527.144C407.38 527.144 408.036 527.328 408.556 527.696C409.076 528.064 409.464 528.584 409.72 529.256C409.976 529.928 410.104 530.724 410.104 531.644C410.104 532.564 409.976 533.364 409.72 534.044C409.464 534.716 409.076 535.236 408.556 535.604C408.036 535.972 407.38 536.156 406.588 536.156ZM406.588 535.04C407.204 535.04 407.696 534.764 408.064 534.212C408.432 533.652 408.616 532.796 408.616 531.644C408.616 530.5 408.432 529.652 408.064 529.1C407.696 528.548 407.204 528.272 406.588 528.272C405.972 528.272 405.48 528.548 405.112 529.1C404.744 529.652 404.56 530.5 404.56 531.644C404.56 532.796 404.744 533.652 405.112 534.212C405.48 534.764 405.972 535.04 406.588 535.04ZM412.872 536V529.556H410.868V528.548C411.308 528.532 411.676 528.488 411.972 528.416C412.276 528.336 412.532 528.208 412.74 528.032C412.948 527.856 413.124 527.612 413.268 527.3H414.3V536H412.872ZM419.002 531.98C419.522 531.98 419.938 531.808 420.25 531.464C420.562 531.112 420.718 530.664 420.718 530.12C420.718 529.568 420.562 529.124 420.25 528.788C419.946 528.444 419.534 528.272 419.014 528.272C418.502 528.272 418.09 528.444 417.778 528.788C417.466 529.132 417.31 529.576 417.31 530.12C417.31 530.656 417.462 531.1 417.766 531.452C418.078 531.804 418.49 531.98 419.002 531.98ZM415.942 533.852H417.418C417.482 534.252 417.646 534.552 417.91 534.752C418.174 534.944 418.502 535.04 418.894 535.04C419.486 535.04 419.95 534.78 420.286 534.26C420.63 533.732 420.81 533.016 420.826 532.112C420.626 532.408 420.35 532.652 419.998 532.844C419.646 533.036 419.206 533.132 418.678 533.132C418.15 533.132 417.666 533.008 417.226 532.76C416.794 532.504 416.45 532.152 416.194 531.704C415.938 531.248 415.81 530.728 415.81 530.144C415.81 529.576 415.942 529.068 416.206 528.62C416.478 528.164 416.854 527.804 417.334 527.54C417.814 527.276 418.37 527.144 419.002 527.144C419.77 527.144 420.394 527.32 420.874 527.672C421.362 528.016 421.722 528.504 421.954 529.136C422.186 529.768 422.302 530.516 422.302 531.38C422.302 532.004 422.238 532.604 422.11 533.18C421.982 533.748 421.778 534.256 421.498 534.704C421.218 535.152 420.854 535.508 420.406 535.772C419.958 536.028 419.414 536.156 418.774 536.156C418.166 536.156 417.662 536.048 417.262 535.832C416.862 535.616 416.554 535.332 416.338 534.98C416.122 534.628 415.99 534.252 415.942 533.852Z" fill="#6E6E6E"/>
<path d="M468.893 536V534.812C469.829 534.132 470.657 533.496 471.377 532.904C472.097 532.304 472.661 531.74 473.069 531.212C473.477 530.676 473.681 530.16 473.681 529.664C473.681 529.232 473.545 528.892 473.273 528.644C473.009 528.396 472.653 528.272 472.205 528.272C471.925 528.272 471.653 528.328 471.389 528.44C471.133 528.552 470.921 528.744 470.753 529.016C470.593 529.28 470.509 529.652 470.501 530.132H469.049C469.049 529.508 469.181 528.976 469.445 528.536C469.717 528.088 470.093 527.744 470.573 527.504C471.053 527.264 471.613 527.144 472.253 527.144C472.813 527.144 473.309 527.24 473.741 527.432C474.181 527.616 474.525 527.884 474.773 528.236C475.029 528.588 475.157 529.02 475.157 529.532C475.157 530.172 474.961 530.788 474.569 531.38C474.185 531.964 473.661 532.536 472.997 533.096C472.341 533.648 471.601 534.2 470.777 534.752H475.313V536H468.893ZM479.912 536.156C479.12 536.156 478.464 535.972 477.944 535.604C477.424 535.236 477.036 534.716 476.78 534.044C476.524 533.364 476.396 532.564 476.396 531.644C476.396 530.724 476.524 529.928 476.78 529.256C477.036 528.584 477.424 528.064 477.944 527.696C478.464 527.328 479.12 527.144 479.912 527.144C480.704 527.144 481.36 527.328 481.88 527.696C482.4 528.064 482.788 528.584 483.044 529.256C483.3 529.928 483.428 530.724 483.428 531.644C483.428 532.564 483.3 533.364 483.044 534.044C482.788 534.716 482.4 535.236 481.88 535.604C481.36 535.972 480.704 536.156 479.912 536.156ZM479.912 535.04C480.528 535.04 481.02 534.764 481.388 534.212C481.756 533.652 481.94 532.796 481.94 531.644C481.94 530.5 481.756 529.652 481.388 529.1C481.02 528.548 480.528 528.272 479.912 528.272C479.296 528.272 478.804 528.548 478.436 529.1C478.068 529.652 477.884 530.5 477.884 531.644C477.884 532.796 478.068 533.652 478.436 534.212C478.804 534.764 479.296 535.04 479.912 535.04ZM484.444 536V534.812C485.38 534.132 486.208 533.496 486.928 532.904C487.648 532.304 488.212 531.74 488.62 531.212C489.028 530.676 489.232 530.16 489.232 529.664C489.232 529.232 489.096 528.892 488.824 528.644C488.56 528.396 488.204 528.272 487.756 528.272C487.476 528.272 487.204 528.328 486.94 528.44C486.684 528.552 486.472 528.744 486.304 529.016C486.144 529.28 486.06 529.652 486.052 530.132H484.6C484.6 529.508 484.732 528.976 484.996 528.536C485.268 528.088 485.644 527.744 486.124 527.504C486.604 527.264 487.164 527.144 487.804 527.144C488.364 527.144 488.86 527.24 489.292 527.432C489.732 527.616 490.076 527.884 490.324 528.236C490.58 528.588 490.708 529.02 490.708 529.532C490.708 530.172 490.512 530.788 490.12 531.38C489.736 531.964 489.212 532.536 488.548 533.096C487.892 533.648 487.152 534.2 486.328 534.752H490.864V536H484.444ZM495.463 536.156C494.671 536.156 494.015 535.972 493.495 535.604C492.975 535.236 492.587 534.716 492.331 534.044C492.075 533.364 491.947 532.564 491.947 531.644C491.947 530.724 492.075 529.928 492.331 529.256C492.587 528.584 492.975 528.064 493.495 527.696C494.015 527.328 494.671 527.144 495.463 527.144C496.255 527.144 496.911 527.328 497.431 527.696C497.951 528.064 498.339 528.584 498.595 529.256C498.851 529.928 498.979 530.724 498.979 531.644C498.979 532.564 498.851 533.364 498.595 534.044C498.339 534.716 497.951 535.236 497.431 535.604C496.911 535.972 496.255 536.156 495.463 536.156ZM495.463 535.04C496.079 535.04 496.571 534.764 496.939 534.212C497.307 533.652 497.491 532.796 497.491 531.644C497.491 530.5 497.307 529.652 496.939 529.1C496.571 528.548 496.079 528.272 495.463 528.272C494.847 528.272 494.355 528.548 493.987 529.1C493.619 529.652 493.435 530.5 493.435 531.644C493.435 532.796 493.619 533.652 493.987 534.212C494.355 534.764 494.847 535.04 495.463 535.04Z" fill="#6E6E6E"/>
<path d="M545.686 536V534.812C546.622 534.132 547.45 533.496 548.17 532.904C548.89 532.304 549.454 531.74 549.862 531.212C550.27 530.676 550.474 530.16 550.474 529.664C550.474 529.232 550.338 528.892 550.066 528.644C549.802 528.396 549.446 528.272 548.998 528.272C548.718 528.272 548.446 528.328 548.182 528.44C547.926 528.552 547.714 528.744 547.546 529.016C547.386 529.28 547.302 529.652 547.294 530.132H545.842C545.842 529.508 545.974 528.976 546.238 528.536C546.51 528.088 546.886 527.744 547.366 527.504C547.846 527.264 548.406 527.144 549.046 527.144C549.606 527.144 550.102 527.24 550.534 527.432C550.974 527.616 551.318 527.884 551.566 528.236C551.822 528.588 551.95 529.02 551.95 529.532C551.95 530.172 551.754 530.788 551.362 531.38C550.978 531.964 550.454 532.536 549.79 533.096C549.134 533.648 548.394 534.2 547.57 534.752H552.106V536H545.686ZM556.705 536.156C555.913 536.156 555.257 535.972 554.737 535.604C554.217 535.236 553.829 534.716 553.573 534.044C553.317 533.364 553.189 532.564 553.189 531.644C553.189 530.724 553.317 529.928 553.573 529.256C553.829 528.584 554.217 528.064 554.737 527.696C555.257 527.328 555.913 527.144 556.705 527.144C557.497 527.144 558.153 527.328 558.673 527.696C559.193 528.064 559.581 528.584 559.837 529.256C560.093 529.928 560.221 530.724 560.221 531.644C560.221 532.564 560.093 533.364 559.837 534.044C559.581 534.716 559.193 535.236 558.673 535.604C558.153 535.972 557.497 536.156 556.705 536.156ZM556.705 535.04C557.321 535.04 557.813 534.764 558.181 534.212C558.549 533.652 558.733 532.796 558.733 531.644C558.733 530.5 558.549 529.652 558.181 529.1C557.813 528.548 557.321 528.272 556.705 528.272C556.089 528.272 555.597 528.548 555.229 529.1C554.861 529.652 554.677 530.5 554.677 531.644C554.677 532.796 554.861 533.652 555.229 534.212C555.597 534.764 556.089 535.04 556.705 535.04ZM561.237 536V534.812C562.173 534.132 563.001 533.496 563.721 532.904C564.441 532.304 565.005 531.74 565.413 531.212C565.821 530.676 566.025 530.16 566.025 529.664C566.025 529.232 565.889 528.892 565.617 528.644C565.353 528.396 564.997 528.272 564.549 528.272C564.269 528.272 563.997 528.328 563.733 528.44C563.477 528.552 563.265 528.744 563.097 529.016C562.937 529.28 562.853 529.652 562.845 530.132H561.393C561.393 529.508 561.525 528.976 561.789 528.536C562.061 528.088 562.437 527.744 562.917 527.504C563.397 527.264 563.957 527.144 564.597 527.144C565.157 527.144 565.653 527.24 566.085 527.432C566.525 527.616 566.869 527.884 567.117 528.236C567.373 528.588 567.501 529.02 567.501 529.532C567.501 530.172 567.305 530.788 566.913 531.38C566.529 531.964 566.005 532.536 565.341 533.096C564.685 533.648 563.945 534.2 563.121 534.752H567.657V536H561.237ZM570.36 536V529.556H568.356V528.548C568.796 528.532 569.164 528.488 569.46 528.416C569.764 528.336 570.02 528.208 570.228 528.032C570.436 527.856 570.612 527.612 570.756 527.3H571.788V536H570.36Z" fill="#6E6E6E"/>
<path d="M618.798 536V534.812C619.734 534.132 620.562 533.496 621.282 532.904C622.002 532.304 622.566 531.74 622.974 531.212C623.382 530.676 623.586 530.16 623.586 529.664C623.586 529.232 623.45 528.892 623.178 528.644C622.914 528.396 622.558 528.272 622.11 528.272C621.83 528.272 621.558 528.328 621.294 528.44C621.038 528.552 620.826 528.744 620.658 529.016C620.498 529.28 620.414 529.652 620.406 530.132H618.954C618.954 529.508 619.086 528.976 619.35 528.536C619.622 528.088 619.998 527.744 620.478 527.504C620.958 527.264 621.518 527.144 622.158 527.144C622.718 527.144 623.214 527.24 623.646 527.432C624.086 527.616 624.43 527.884 624.678 528.236C624.934 528.588 625.062 529.02 625.062 529.532C625.062 530.172 624.866 530.788 624.474 531.38C624.09 531.964 623.566 532.536 622.902 533.096C622.246 533.648 621.506 534.2 620.682 534.752H625.218V536H618.798ZM629.817 536.156C629.025 536.156 628.369 535.972 627.849 535.604C627.329 535.236 626.941 534.716 626.685 534.044C626.429 533.364 626.301 532.564 626.301 531.644C626.301 530.724 626.429 529.928 626.685 529.256C626.941 528.584 627.329 528.064 627.849 527.696C628.369 527.328 629.025 527.144 629.817 527.144C630.609 527.144 631.265 527.328 631.785 527.696C632.305 528.064 632.693 528.584 632.949 529.256C633.205 529.928 633.333 530.724 633.333 531.644C633.333 532.564 633.205 533.364 632.949 534.044C632.693 534.716 632.305 535.236 631.785 535.604C631.265 535.972 630.609 536.156 629.817 536.156ZM629.817 535.04C630.433 535.04 630.925 534.764 631.293 534.212C631.661 533.652 631.845 532.796 631.845 531.644C631.845 530.5 631.661 529.652 631.293 529.1C630.925 528.548 630.433 528.272 629.817 528.272C629.201 528.272 628.709 528.548 628.341 529.1C627.973 529.652 627.789 530.5 627.789 531.644C627.789 532.796 627.973 533.652 628.341 534.212C628.709 534.764 629.201 535.04 629.817 535.04ZM634.348 536V534.812C635.284 534.132 636.112 533.496 636.832 532.904C637.552 532.304 638.116 531.74 638.524 531.212C638.932 530.676 639.136 530.16 639.136 529.664C639.136 529.232 639 528.892 638.728 528.644C638.464 528.396 638.108 528.272 637.66 528.272C637.38 528.272 637.108 528.328 636.844 528.44C636.588 528.552 636.376 528.744 636.208 529.016C636.048 529.28 635.964 529.652 635.956 530.132H634.504C634.504 529.508 634.636 528.976 634.9 528.536C635.172 528.088 635.548 527.744 636.028 527.504C636.508 527.264 637.068 527.144 637.708 527.144C638.268 527.144 638.764 527.24 639.196 527.432C639.636 527.616 639.98 527.884 640.228 528.236C640.484 528.588 640.612 529.02 640.612 529.532C640.612 530.172 640.416 530.788 640.024 531.38C639.64 531.964 639.116 532.536 638.452 533.096C637.796 533.648 637.056 534.2 636.232 534.752H640.768V536H634.348ZM641.719 536V534.812C642.655 534.132 643.483 533.496 644.203 532.904C644.923 532.304 645.487 531.74 645.895 531.212C646.303 530.676 646.507 530.16 646.507 529.664C646.507 529.232 646.371 528.892 646.099 528.644C645.835 528.396 645.479 528.272 645.031 528.272C644.751 528.272 644.479 528.328 644.215 528.44C643.959 528.552 643.747 528.744 643.579 529.016C643.419 529.28 643.335 529.652 643.327 530.132H641.875C641.875 529.508 642.007 528.976 642.271 528.536C642.543 528.088 642.919 527.744 643.399 527.504C643.879 527.264 644.439 527.144 645.079 527.144C645.639 527.144 646.135 527.24 646.567 527.432C647.007 527.616 647.351 527.884 647.599 528.236C647.855 528.588 647.983 529.02 647.983 529.532C647.983 530.172 647.787 530.788 647.395 531.38C647.011 531.964 646.487 532.536 645.823 533.096C645.167 533.648 644.427 534.2 643.603 534.752H648.139V536H641.719Z" fill="#6E6E6E"/>
<path d="M694.715 536V534.812C695.651 534.132 696.479 533.496 697.199 532.904C697.919 532.304 698.483 531.74 698.891 531.212C699.299 530.676 699.503 530.16 699.503 529.664C699.503 529.232 699.367 528.892 699.095 528.644C698.831 528.396 698.475 528.272 698.027 528.272C697.747 528.272 697.475 528.328 697.211 528.44C696.955 528.552 696.743 528.744 696.575 529.016C696.415 529.28 696.331 529.652 696.323 530.132H694.871C694.871 529.508 695.003 528.976 695.267 528.536C695.539 528.088 695.915 527.744 696.395 527.504C696.875 527.264 697.435 527.144 698.075 527.144C698.635 527.144 699.131 527.24 699.563 527.432C700.003 527.616 700.347 527.884 700.595 528.236C700.851 528.588 700.979 529.02 700.979 529.532C700.979 530.172 700.783 530.788 700.391 531.38C700.007 531.964 699.483 532.536 698.819 533.096C698.163 533.648 697.423 534.2 696.599 534.752H701.135V536H694.715ZM705.735 536.156C704.943 536.156 704.287 535.972 703.767 535.604C703.247 535.236 702.859 534.716 702.603 534.044C702.347 533.364 702.219 532.564 702.219 531.644C702.219 530.724 702.347 529.928 702.603 529.256C702.859 528.584 703.247 528.064 703.767 527.696C704.287 527.328 704.943 527.144 705.735 527.144C706.527 527.144 707.183 527.328 707.703 527.696C708.223 528.064 708.611 528.584 708.867 529.256C709.123 529.928 709.251 530.724 709.251 531.644C709.251 532.564 709.123 533.364 708.867 534.044C708.611 534.716 708.223 535.236 707.703 535.604C707.183 535.972 706.527 536.156 705.735 536.156ZM705.735 535.04C706.351 535.04 706.843 534.764 707.211 534.212C707.579 533.652 707.763 532.796 707.763 531.644C707.763 530.5 707.579 529.652 707.211 529.1C706.843 528.548 706.351 528.272 705.735 528.272C705.119 528.272 704.627 528.548 704.259 529.1C703.891 529.652 703.707 530.5 703.707 531.644C703.707 532.796 703.891 533.652 704.259 534.212C704.627 534.764 705.119 535.04 705.735 535.04ZM710.266 536V534.812C711.202 534.132 712.03 533.496 712.75 532.904C713.47 532.304 714.034 531.74 714.442 531.212C714.85 530.676 715.054 530.16 715.054 529.664C715.054 529.232 714.918 528.892 714.646 528.644C714.382 528.396 714.026 528.272 713.578 528.272C713.298 528.272 713.026 528.328 712.762 528.44C712.506 528.552 712.294 528.744 712.126 529.016C711.966 529.28 711.882 529.652 711.874 530.132H710.422C710.422 529.508 710.554 528.976 710.818 528.536C711.09 528.088 711.466 527.744 711.946 527.504C712.426 527.264 712.986 527.144 713.626 527.144C714.186 527.144 714.682 527.24 715.114 527.432C715.554 527.616 715.898 527.884 716.146 528.236C716.402 528.588 716.53 529.02 716.53 529.532C716.53 530.172 716.334 530.788 715.942 531.38C715.558 531.964 715.034 532.536 714.37 533.096C713.714 533.648 712.974 534.2 712.15 534.752H716.686V536H710.266ZM719.197 529.784H717.757C717.813 529.224 717.981 528.748 718.261 528.356C718.549 527.964 718.929 527.664 719.401 527.456C719.873 527.248 720.409 527.144 721.009 527.144C721.521 527.144 722.001 527.22 722.449 527.372C722.897 527.524 723.261 527.764 723.541 528.092C723.821 528.412 723.961 528.84 723.961 529.376C723.961 529.824 723.837 530.224 723.589 530.576C723.349 530.928 723.029 531.196 722.629 531.38C723.197 531.572 723.593 531.868 723.817 532.268C724.049 532.668 724.165 533.084 724.165 533.516C724.165 534.108 724.013 534.6 723.709 534.992C723.405 535.384 723.005 535.676 722.509 535.868C722.013 536.06 721.477 536.156 720.901 536.156C719.941 536.156 719.177 535.9 718.609 535.388C718.041 534.876 717.717 534.204 717.637 533.372H719.077C719.141 533.9 719.333 534.312 719.653 534.608C719.981 534.896 720.405 535.04 720.925 535.04C721.445 535.04 721.865 534.912 722.185 534.656C722.513 534.392 722.677 534.016 722.677 533.528C722.677 533.176 722.577 532.896 722.377 532.688C722.177 532.472 721.905 532.316 721.561 532.22C721.225 532.124 720.841 532.076 720.409 532.076H720.073V530.84H720.361C721.049 530.84 721.577 530.736 721.945 530.528C722.313 530.32 722.497 529.984 722.497 529.52C722.497 529.104 722.341 528.792 722.029 528.584C721.725 528.376 721.369 528.272 720.961 528.272C720.457 528.272 720.049 528.404 719.737 528.668C719.433 528.932 719.253 529.304 719.197 529.784Z" fill="#6E6E6E"/>
<path d="M769.598 536V534.812C770.534 534.132 771.362 533.496 772.082 532.904C772.802 532.304 773.366 531.74 773.774 531.212C774.182 530.676 774.386 530.16 774.386 529.664C774.386 529.232 774.25 528.892 773.978 528.644C773.714 528.396 773.358 528.272 772.91 528.272C772.63 528.272 772.358 528.328 772.094 528.44C771.838 528.552 771.626 528.744 771.458 529.016C771.298 529.28 771.214 529.652 771.206 530.132H769.754C769.754 529.508 769.886 528.976 770.15 528.536C770.422 528.088 770.798 527.744 771.278 527.504C771.758 527.264 772.318 527.144 772.958 527.144C773.518 527.144 774.014 527.24 774.446 527.432C774.886 527.616 775.23 527.884 775.478 528.236C775.734 528.588 775.862 529.02 775.862 529.532C775.862 530.172 775.666 530.788 775.274 531.38C774.89 531.964 774.366 532.536 773.702 533.096C773.046 533.648 772.306 534.2 771.482 534.752H776.018V536H769.598ZM780.617 536.156C779.825 536.156 779.169 535.972 778.649 535.604C778.129 535.236 777.741 534.716 777.485 534.044C777.229 533.364 777.101 532.564 777.101 531.644C777.101 530.724 777.229 529.928 777.485 529.256C777.741 528.584 778.129 528.064 778.649 527.696C779.169 527.328 779.825 527.144 780.617 527.144C781.409 527.144 782.065 527.328 782.585 527.696C783.105 528.064 783.493 528.584 783.749 529.256C784.005 529.928 784.133 530.724 784.133 531.644C784.133 532.564 784.005 533.364 783.749 534.044C783.493 534.716 783.105 535.236 782.585 535.604C782.065 535.972 781.409 536.156 780.617 536.156ZM780.617 535.04C781.233 535.04 781.725 534.764 782.093 534.212C782.461 533.652 782.645 532.796 782.645 531.644C782.645 530.5 782.461 529.652 782.093 529.1C781.725 528.548 781.233 528.272 780.617 528.272C780.001 528.272 779.509 528.548 779.141 529.1C778.773 529.652 778.589 530.5 778.589 531.644C778.589 532.796 778.773 533.652 779.141 534.212C779.509 534.764 780.001 535.04 780.617 535.04ZM785.149 536V534.812C786.085 534.132 786.913 533.496 787.633 532.904C788.353 532.304 788.917 531.74 789.325 531.212C789.733 530.676 789.937 530.16 789.937 529.664C789.937 529.232 789.801 528.892 789.529 528.644C789.265 528.396 788.909 528.272 788.461 528.272C788.181 528.272 787.909 528.328 787.645 528.44C787.389 528.552 787.177 528.744 787.009 529.016C786.849 529.28 786.765 529.652 786.757 530.132H785.305C785.305 529.508 785.437 528.976 785.701 528.536C785.973 528.088 786.349 527.744 786.829 527.504C787.309 527.264 787.869 527.144 788.509 527.144C789.069 527.144 789.565 527.24 789.997 527.432C790.437 527.616 790.781 527.884 791.029 528.236C791.285 528.588 791.413 529.02 791.413 529.532C791.413 530.172 791.217 530.788 790.825 531.38C790.441 531.964 789.917 532.536 789.253 533.096C788.597 533.648 787.857 534.2 787.033 534.752H791.569V536H785.149ZM796.616 536V533.972H792.332V532.748L796.664 527.3H798.056V532.664H799.508V533.972H798.056V536H796.616ZM793.904 532.664H796.616V529.208L793.904 532.664Z" fill="#6E6E6E"/>
<path d="M823.573 106.548L823.309 108.696C823.525 108.504 823.797 108.36 824.125 108.264C824.453 108.16 824.785 108.108 825.121 108.108C825.633 108.108 826.113 108.224 826.561 108.456C827.009 108.688 827.369 109.028 827.641 109.476C827.921 109.924 828.061 110.476 828.061 111.132C828.061 111.796 827.909 112.352 827.605 112.8C827.301 113.248 826.901 113.588 826.405 113.82C825.909 114.044 825.369 114.156 824.785 114.156C824.145 114.156 823.593 114.04 823.129 113.808C822.673 113.568 822.309 113.24 822.037 112.824C821.773 112.408 821.605 111.94 821.533 111.42H822.961C823.129 112.5 823.737 113.04 824.785 113.04C825.113 113.04 825.409 112.968 825.673 112.824C825.945 112.672 826.161 112.456 826.321 112.176C826.489 111.888 826.573 111.544 826.573 111.144C826.573 110.704 826.485 110.348 826.309 110.076C826.133 109.796 825.909 109.592 825.637 109.464C825.365 109.328 825.081 109.26 824.785 109.26C824.377 109.26 824.037 109.356 823.765 109.548C823.493 109.732 823.297 109.944 823.177 110.184L821.809 110.076L822.397 105.3H827.701V106.548H823.573ZM829.203 115.752L829.995 114H829.299V112.332H831.003V114.108L830.079 115.752H829.203ZM835.67 114.156C834.878 114.156 834.222 113.972 833.702 113.604C833.182 113.236 832.794 112.716 832.538 112.044C832.282 111.364 832.154 110.564 832.154 109.644C832.154 108.724 832.282 107.928 832.538 107.256C832.794 106.584 833.182 106.064 833.702 105.696C834.222 105.328 834.878 105.144 835.67 105.144C836.462 105.144 837.118 105.328 837.638 105.696C838.158 106.064 838.546 106.584 838.802 107.256C839.058 107.928 839.186 108.724 839.186 109.644C839.186 110.564 839.058 111.364 838.802 112.044C838.546 112.716 838.158 113.236 837.638 113.604C837.118 113.972 836.462 114.156 835.67 114.156ZM835.67 113.04C836.286 113.04 836.778 112.764 837.146 112.212C837.514 111.652 837.698 110.796 837.698 109.644C837.698 108.5 837.514 107.652 837.146 107.1C836.778 106.548 836.286 106.272 835.67 106.272C835.054 106.272 834.562 106.548 834.194 107.1C833.826 107.652 833.642 108.5 833.642 109.644C833.642 110.796 833.826 111.652 834.194 112.212C834.562 112.764 835.054 113.04 835.67 113.04ZM843.85 114.156C843.058 114.156 842.402 113.972 841.882 113.604C841.362 113.236 840.974 112.716 840.718 112.044C840.462 111.364 840.334 110.564 840.334 109.644C840.334 108.724 840.462 107.928 840.718 107.256C840.974 106.584 841.362 106.064 841.882 105.696C842.402 105.328 843.058 105.144 843.85 105.144C844.642 105.144 845.298 105.328 845.818 105.696C846.338 106.064 846.726 106.584 846.982 107.256C847.238 107.928 847.366 108.724 847.366 109.644C847.366 110.564 847.238 111.364 846.982 112.044C846.726 112.716 846.338 113.236 845.818 113.604C845.298 113.972 844.642 114.156 843.85 114.156ZM843.85 113.04C844.466 113.04 844.958 112.764 845.326 112.212C845.694 111.652 845.878 110.796 845.878 109.644C845.878 108.5 845.694 107.652 845.326 107.1C844.958 106.548 844.466 106.272 843.85 106.272C843.234 106.272 842.742 106.548 842.374 107.1C842.006 107.652 841.822 108.5 841.822 109.644C841.822 110.796 842.006 111.652 842.374 112.212C842.742 112.764 843.234 113.04 843.85 113.04ZM852.03 114.156C851.238 114.156 850.582 113.972 850.062 113.604C849.542 113.236 849.154 112.716 848.898 112.044C848.642 111.364 848.514 110.564 848.514 109.644C848.514 108.724 848.642 107.928 848.898 107.256C849.154 106.584 849.542 106.064 850.062 105.696C850.582 105.328 851.238 105.144 852.03 105.144C852.822 105.144 853.478 105.328 853.997 105.696C854.518 106.064 854.906 106.584 855.162 107.256C855.418 107.928 855.546 108.724 855.546 109.644C855.546 110.564 855.418 111.364 855.162 112.044C854.906 112.716 854.518 113.236 853.997 113.604C853.478 113.972 852.822 114.156 852.03 114.156ZM852.03 113.04C852.646 113.04 853.138 112.764 853.506 112.212C853.874 111.652 854.058 110.796 854.058 109.644C854.058 108.5 853.874 107.652 853.506 107.1C853.138 106.548 852.646 106.272 852.03 106.272C851.414 106.272 850.922 106.548 850.554 107.1C850.186 107.652 850.002 108.5 850.002 109.644C850.002 110.796 850.186 111.652 850.554 112.212C850.922 112.764 851.414 113.04 852.03 113.04ZM862.219 115.116V114.132C861.587 114.084 861.055 113.928 860.623 113.664C860.191 113.392 859.863 113.048 859.639 112.632C859.415 112.208 859.299 111.748 859.291 111.252H860.719C860.735 111.74 860.871 112.14 861.127 112.452C861.383 112.756 861.747 112.94 862.219 113.004V110.148L861.871 110.052C861.447 109.94 861.055 109.776 860.695 109.56C860.335 109.344 860.047 109.068 859.831 108.732C859.615 108.396 859.507 107.992 859.507 107.52C859.507 107.064 859.627 106.668 859.867 106.332C860.115 105.996 860.443 105.728 860.851 105.528C861.267 105.32 861.727 105.196 862.231 105.156V104.184H862.951V105.156C863.519 105.204 864.003 105.348 864.403 105.588C864.803 105.82 865.111 106.12 865.327 106.488C865.551 106.848 865.675 107.252 865.699 107.7H864.271C864.223 107.316 864.091 107.004 863.875 106.764C863.659 106.516 863.351 106.364 862.951 106.308V108.96L863.047 108.984C863.551 109.112 864.019 109.272 864.451 109.464C864.883 109.656 865.227 109.916 865.483 110.244C865.747 110.572 865.879 111.012 865.879 111.564C865.879 112.068 865.751 112.508 865.495 112.884C865.239 113.252 864.887 113.544 864.439 113.76C863.999 113.968 863.499 114.092 862.939 114.132V115.116H862.219ZM864.463 111.72C864.463 111.336 864.339 111.044 864.091 110.844C863.843 110.644 863.459 110.472 862.939 110.328V113.016C863.427 112.968 863.803 112.828 864.067 112.596C864.331 112.364 864.463 112.072 864.463 111.72ZM860.911 107.484C860.911 107.772 861.003 108.02 861.187 108.228C861.379 108.428 861.727 108.608 862.231 108.768V106.284C861.815 106.332 861.491 106.464 861.259 106.68C861.027 106.888 860.911 107.156 860.911 107.484ZM866.457 114L869.913 105.3H871.353L867.885 114H866.457ZM871.923 114V107.544H874.143L875.823 112.308L877.479 107.544H879.591V114H878.199V108.9L876.411 114H875.091L873.303 108.9V114H871.923ZM880.805 108.744V107.82C881.565 107.26 882.165 106.784 882.605 106.392C883.053 105.992 883.277 105.624 883.277 105.288C883.277 105.072 883.221 104.912 883.109 104.808C882.997 104.696 882.857 104.64 882.689 104.64C882.489 104.64 882.313 104.708 882.161 104.844C882.009 104.972 881.929 105.2 881.921 105.528H880.817C880.817 104.984 880.989 104.556 881.333 104.244C881.677 103.924 882.145 103.764 882.737 103.764C883.217 103.764 883.621 103.884 883.949 104.124C884.277 104.356 884.441 104.704 884.441 105.168C884.441 105.632 884.257 106.068 883.889 106.476C883.521 106.884 883.013 107.312 882.365 107.76H884.537V108.744H880.805Z" fill="#6E6E6E"/>
<path d="M825.182 240.667V238.639H820.898V237.415L825.23 231.967H826.622V237.331H828.074V238.639H826.622V240.667H825.182ZM822.47 237.331H825.182V233.875L822.47 237.331ZM828.826 242.419L829.618 240.667H828.922V238.999H830.626V240.775L829.702 242.419H828.826ZM835.293 240.823C834.501 240.823 833.845 240.639 833.325 240.271C832.805 239.903 832.417 239.383 832.161 238.711C831.905 238.031 831.777 237.231 831.777 236.311C831.777 235.391 831.905 234.595 832.161 233.923C832.417 233.251 832.805 232.731 833.325 232.363C833.845 231.995 834.501 231.811 835.293 231.811C836.085 231.811 836.741 231.995 837.261 232.363C837.781 232.731 838.169 233.251 838.425 233.923C838.681 234.595 838.809 235.391 838.809 236.311C838.809 237.231 838.681 238.031 838.425 238.711C838.169 239.383 837.781 239.903 837.261 240.271C836.741 240.639 836.085 240.823 835.293 240.823ZM835.293 239.707C835.909 239.707 836.401 239.431 836.769 238.879C837.137 238.319 837.321 237.463 837.321 236.311C837.321 235.167 837.137 234.319 836.769 233.767C836.401 233.215 835.909 232.939 835.293 232.939C834.677 232.939 834.185 233.215 833.817 233.767C833.449 234.319 833.265 235.167 833.265 236.311C833.265 237.463 833.449 238.319 833.817 238.879C834.185 239.431 834.677 239.707 835.293 239.707ZM843.473 240.823C842.681 240.823 842.025 240.639 841.505 240.271C840.985 239.903 840.597 239.383 840.341 238.711C840.085 238.031 839.957 237.231 839.957 236.311C839.957 235.391 840.085 234.595 840.341 233.923C840.597 233.251 840.985 232.731 841.505 232.363C842.025 231.995 842.681 231.811 843.473 231.811C844.265 231.811 844.921 231.995 845.441 232.363C845.961 232.731 846.349 233.251 846.605 233.923C846.861 234.595 846.989 235.391 846.989 236.311C846.989 237.231 846.861 238.031 846.605 238.711C846.349 239.383 845.961 239.903 845.441 240.271C844.921 240.639 844.265 240.823 843.473 240.823ZM843.473 239.707C844.089 239.707 844.581 239.431 844.949 238.879C845.317 238.319 845.501 237.463 845.501 236.311C845.501 235.167 845.317 234.319 844.949 233.767C844.581 233.215 844.089 232.939 843.473 232.939C842.857 232.939 842.365 233.215 841.997 233.767C841.629 234.319 841.445 235.167 841.445 236.311C841.445 237.463 841.629 238.319 841.997 238.879C842.365 239.431 842.857 239.707 843.473 239.707ZM851.653 240.823C850.861 240.823 850.205 240.639 849.685 240.271C849.165 239.903 848.777 239.383 848.521 238.711C848.265 238.031 848.137 237.231 848.137 236.311C848.137 235.391 848.265 234.595 848.521 233.923C848.777 233.251 849.165 232.731 849.685 232.363C850.205 231.995 850.861 231.811 851.653 231.811C852.445 231.811 853.101 231.995 853.621 232.363C854.141 232.731 854.529 233.251 854.785 233.923C855.041 234.595 855.169 235.391 855.169 236.311C855.169 237.231 855.041 238.031 854.785 238.711C854.529 239.383 854.141 239.903 853.621 240.271C853.101 240.639 852.445 240.823 851.653 240.823ZM851.653 239.707C852.269 239.707 852.761 239.431 853.129 238.879C853.497 238.319 853.681 237.463 853.681 236.311C853.681 235.167 853.497 234.319 853.129 233.767C852.761 233.215 852.269 232.939 851.653 232.939C851.037 232.939 850.545 233.215 850.177 233.767C849.809 234.319 849.625 235.167 849.625 236.311C849.625 237.463 849.809 238.319 850.177 238.879C850.545 239.431 851.037 239.707 851.653 239.707ZM861.842 241.783V240.799C861.21 240.751 860.678 240.595 860.246 240.331C859.814 240.059 859.486 239.715 859.262 239.299C859.038 238.875 858.922 238.415 858.914 237.919H860.342C860.358 238.407 860.494 238.807 860.75 239.119C861.006 239.423 861.37 239.607 861.842 239.671V236.815L861.494 236.719C861.07 236.607 860.678 236.443 860.318 236.227C859.958 236.011 859.67 235.735 859.454 235.399C859.238 235.063 859.13 234.659 859.13 234.187C859.13 233.731 859.25 233.335 859.49 232.999C859.738 232.663 860.066 232.395 860.474 232.195C860.89 231.987 861.35 231.863 861.854 231.823V230.851H862.574V231.823C863.142 231.871 863.626 232.015 864.026 232.255C864.426 232.487 864.734 232.787 864.95 233.155C865.174 233.515 865.298 233.919 865.322 234.367H863.894C863.846 233.983 863.714 233.671 863.498 233.431C863.282 233.183 862.974 233.031 862.574 232.975V235.627L862.67 235.651C863.174 235.779 863.642 235.939 864.074 236.131C864.506 236.323 864.85 236.583 865.106 236.911C865.37 237.239 865.502 237.679 865.502 238.231C865.502 238.735 865.374 239.175 865.118 239.551C864.862 239.919 864.51 240.211 864.062 240.427C863.622 240.635 863.122 240.759 862.562 240.799V241.783H861.842ZM864.086 238.387C864.086 238.003 863.962 237.711 863.714 237.511C863.466 237.311 863.082 237.139 862.562 236.995V239.683C863.05 239.635 863.426 239.495 863.69 239.263C863.954 239.031 864.086 238.739 864.086 238.387ZM860.534 234.151C860.534 234.439 860.626 234.687 860.81 234.895C861.002 235.095 861.35 235.275 861.854 235.435V232.951C861.438 232.999 861.114 233.131 860.882 233.347C860.65 233.555 860.534 233.823 860.534 234.151ZM866.08 240.667L869.536 231.967H870.976L867.508 240.667H866.08ZM871.546 240.667V234.211H873.766L875.446 238.975L877.102 234.211H879.214V240.667H877.822V235.567L876.034 240.667H874.714L872.926 235.567V240.667H871.546ZM880.428 235.411V234.487C881.188 233.927 881.788 233.451 882.228 233.059C882.676 232.659 882.9 232.291 882.9 231.955C882.9 231.739 882.844 231.579 882.732 231.475C882.62 231.363 882.48 231.307 882.312 231.307C882.112 231.307 881.936 231.375 881.784 231.511C881.632 231.639 881.552 231.867 881.544 232.195H880.44C880.44 231.651 880.612 231.223 880.956 230.911C881.3 230.591 881.768 230.431 882.36 230.431C882.84 230.431 883.244 230.551 883.572 230.791C883.9 231.023 884.064 231.371 884.064 231.835C884.064 232.299 883.88 232.735 883.512 233.143C883.144 233.551 882.636 233.979 881.988 234.427H884.16V235.411H880.428Z" fill="#6E6E6E"/>
<path d="M823.07 361.117H821.63C821.686 360.557 821.854 360.081 822.134 359.689C822.422 359.297 822.802 358.997 823.274 358.789C823.746 358.581 824.282 358.477 824.882 358.477C825.394 358.477 825.874 358.553 826.322 358.705C826.77 358.857 827.134 359.097 827.414 359.425C827.694 359.745 827.834 360.173 827.834 360.709C827.834 361.157 827.71 361.557 827.462 361.909C827.222 362.261 826.902 362.529 826.502 362.713C827.07 362.905 827.466 363.201 827.69 363.601C827.922 364.001 828.038 364.417 828.038 364.849C828.038 365.441 827.886 365.933 827.582 366.325C827.278 366.717 826.878 367.009 826.382 367.201C825.886 367.393 825.35 367.489 824.774 367.489C823.814 367.489 823.05 367.233 822.482 366.721C821.914 366.209 821.59 365.537 821.51 364.705H822.95C823.014 365.233 823.206 365.645 823.526 365.941C823.854 366.229 824.278 366.373 824.798 366.373C825.318 366.373 825.738 366.245 826.058 365.989C826.386 365.725 826.55 365.349 826.55 364.861C826.55 364.509 826.45 364.229 826.25 364.021C826.05 363.805 825.778 363.649 825.434 363.553C825.098 363.457 824.714 363.409 824.282 363.409H823.946V362.173H824.234C824.922 362.173 825.45 362.069 825.818 361.861C826.186 361.653 826.37 361.317 826.37 360.853C826.37 360.437 826.214 360.125 825.902 359.917C825.598 359.709 825.242 359.605 824.834 359.605C824.33 359.605 823.922 359.737 823.61 360.001C823.306 360.265 823.126 360.637 823.07 361.117ZM829.25 369.085L830.042 367.333H829.346V365.665H831.05V367.441L830.126 369.085H829.25ZM835.717 367.489C834.925 367.489 834.269 367.305 833.749 366.937C833.229 366.569 832.841 366.049 832.585 365.377C832.329 364.697 832.201 363.897 832.201 362.977C832.201 362.057 832.329 361.261 832.585 360.589C832.841 359.917 833.229 359.397 833.749 359.029C834.269 358.661 834.925 358.477 835.717 358.477C836.509 358.477 837.165 358.661 837.685 359.029C838.205 359.397 838.593 359.917 838.849 360.589C839.105 361.261 839.233 362.057 839.233 362.977C839.233 363.897 839.105 364.697 838.849 365.377C838.593 366.049 838.205 366.569 837.685 366.937C837.165 367.305 836.509 367.489 835.717 367.489ZM835.717 366.373C836.333 366.373 836.825 366.097 837.193 365.545C837.561 364.985 837.745 364.129 837.745 362.977C837.745 361.833 837.561 360.985 837.193 360.433C836.825 359.881 836.333 359.605 835.717 359.605C835.101 359.605 834.609 359.881 834.241 360.433C833.873 360.985 833.689 361.833 833.689 362.977C833.689 364.129 833.873 364.985 834.241 365.545C834.609 366.097 835.101 366.373 835.717 366.373ZM843.897 367.489C843.105 367.489 842.449 367.305 841.929 366.937C841.409 366.569 841.021 366.049 840.765 365.377C840.509 364.697 840.381 363.897 840.381 362.977C840.381 362.057 840.509 361.261 840.765 360.589C841.021 359.917 841.409 359.397 841.929 359.029C842.449 358.661 843.105 358.477 843.897 358.477C844.689 358.477 845.345 358.661 845.865 359.029C846.385 359.397 846.773 359.917 847.029 360.589C847.285 361.261 847.413 362.057 847.413 362.977C847.413 363.897 847.285 364.697 847.029 365.377C846.773 366.049 846.385 366.569 845.865 366.937C845.345 367.305 844.689 367.489 843.897 367.489ZM843.897 366.373C844.513 366.373 845.005 366.097 845.373 365.545C845.741 364.985 845.925 364.129 845.925 362.977C845.925 361.833 845.741 360.985 845.373 360.433C845.005 359.881 844.513 359.605 843.897 359.605C843.281 359.605 842.789 359.881 842.421 360.433C842.053 360.985 841.869 361.833 841.869 362.977C841.869 364.129 842.053 364.985 842.421 365.545C842.789 366.097 843.281 366.373 843.897 366.373ZM852.076 367.489C851.284 367.489 850.628 367.305 850.108 366.937C849.588 366.569 849.2 366.049 848.944 365.377C848.688 364.697 848.56 363.897 848.56 362.977C848.56 362.057 848.688 361.261 848.944 360.589C849.2 359.917 849.588 359.397 850.108 359.029C850.628 358.661 851.284 358.477 852.076 358.477C852.868 358.477 853.524 358.661 854.044 359.029C854.564 359.397 854.952 359.917 855.208 360.589C855.464 361.261 855.592 362.057 855.592 362.977C855.592 363.897 855.464 364.697 855.208 365.377C854.952 366.049 854.564 366.569 854.044 366.937C853.524 367.305 852.868 367.489 852.076 367.489ZM852.076 366.373C852.692 366.373 853.184 366.097 853.552 365.545C853.92 364.985 854.104 364.129 854.104 362.977C854.104 361.833 853.92 360.985 853.552 360.433C853.184 359.881 852.692 359.605 852.076 359.605C851.46 359.605 850.968 359.881 850.6 360.433C850.232 360.985 850.048 361.833 850.048 362.977C850.048 364.129 850.232 364.985 850.6 365.545C850.968 366.097 851.46 366.373 852.076 366.373ZM862.266 368.449V367.465C861.634 367.417 861.102 367.261 860.67 366.997C860.238 366.725 859.91 366.381 859.686 365.965C859.462 365.541 859.346 365.081 859.338 364.585H860.766C860.782 365.073 860.918 365.473 861.174 365.785C861.43 366.089 861.794 366.273 862.266 366.337V363.481L861.918 363.385C861.494 363.273 861.102 363.109 860.742 362.893C860.382 362.677 860.094 362.401 859.878 362.065C859.662 361.729 859.554 361.325 859.554 360.853C859.554 360.397 859.674 360.001 859.914 359.665C860.162 359.329 860.49 359.061 860.898 358.861C861.314 358.653 861.774 358.529 862.278 358.489V357.517H862.998V358.489C863.566 358.537 864.05 358.681 864.45 358.921C864.85 359.153 865.158 359.453 865.374 359.821C865.598 360.181 865.722 360.585 865.746 361.033H864.318C864.27 360.649 864.138 360.337 863.922 360.097C863.706 359.849 863.398 359.697 862.998 359.641V362.293L863.094 362.317C863.598 362.445 864.066 362.605 864.498 362.797C864.93 362.989 865.274 363.249 865.53 363.577C865.794 363.905 865.926 364.345 865.926 364.897C865.926 365.401 865.798 365.841 865.542 366.217C865.286 366.585 864.934 366.877 864.486 367.093C864.046 367.301 863.546 367.425 862.986 367.465V368.449H862.266ZM864.51 365.053C864.51 364.669 864.386 364.377 864.138 364.177C863.89 363.977 863.506 363.805 862.986 363.661V366.349C863.474 366.301 863.85 366.161 864.114 365.929C864.378 365.697 864.51 365.405 864.51 365.053ZM860.958 360.817C860.958 361.105 861.05 361.353 861.234 361.561C861.426 361.761 861.774 361.941 862.278 362.101V359.617C861.862 359.665 861.538 359.797 861.306 360.013C861.074 360.221 860.958 360.489 860.958 360.817ZM866.504 367.333L869.96 358.633H871.4L867.932 367.333H866.504ZM871.969 367.333V360.877H874.189L875.869 365.641L877.525 360.877H879.637V367.333H878.245V362.233L876.457 367.333H875.137L873.349 362.233V367.333H871.969ZM880.852 362.077V361.153C881.612 360.593 882.212 360.117 882.652 359.725C883.1 359.325 883.324 358.957 883.324 358.621C883.324 358.405 883.268 358.245 883.156 358.141C883.044 358.029 882.904 357.973 882.736 357.973C882.536 357.973 882.36 358.041 882.208 358.177C882.056 358.305 881.976 358.533 881.968 358.861H880.864C880.864 358.317 881.036 357.889 881.38 357.577C881.724 357.257 882.192 357.097 882.784 357.097C883.264 357.097 883.668 357.217 883.996 357.457C884.324 357.689 884.488 358.037 884.488 358.501C884.488 358.965 884.304 359.401 883.936 359.809C883.568 360.217 883.06 360.645 882.412 361.093H884.584V362.077H880.852Z" fill="#6E6E6E"/>
<path d="M821.592 494V492.812C822.528 492.132 823.356 491.496 824.076 490.904C824.796 490.304 825.36 489.74 825.768 489.212C826.176 488.676 826.38 488.16 826.38 487.664C826.38 487.232 826.244 486.892 825.972 486.644C825.708 486.396 825.352 486.272 824.904 486.272C824.624 486.272 824.352 486.328 824.088 486.44C823.832 486.552 823.62 486.744 823.452 487.016C823.292 487.28 823.208 487.652 823.2 488.132H821.748C821.748 487.508 821.88 486.976 822.144 486.536C822.416 486.088 822.792 485.744 823.272 485.504C823.752 485.264 824.312 485.144 824.952 485.144C825.512 485.144 826.008 485.24 826.44 485.432C826.88 485.616 827.224 485.884 827.472 486.236C827.728 486.588 827.856 487.02 827.856 487.532C827.856 488.172 827.66 488.788 827.268 489.38C826.884 489.964 826.36 490.536 825.696 491.096C825.04 491.648 824.3 492.2 823.476 492.752H828.012V494H821.592ZM829.168 495.752L829.96 494H829.264V492.332H830.968V494.108L830.044 495.752H829.168ZM835.635 494.156C834.843 494.156 834.187 493.972 833.667 493.604C833.147 493.236 832.759 492.716 832.503 492.044C832.247 491.364 832.119 490.564 832.119 489.644C832.119 488.724 832.247 487.928 832.503 487.256C832.759 486.584 833.147 486.064 833.667 485.696C834.187 485.328 834.843 485.144 835.635 485.144C836.427 485.144 837.083 485.328 837.603 485.696C838.123 486.064 838.511 486.584 838.767 487.256C839.023 487.928 839.151 488.724 839.151 489.644C839.151 490.564 839.023 491.364 838.767 492.044C838.511 492.716 838.123 493.236 837.603 493.604C837.083 493.972 836.427 494.156 835.635 494.156ZM835.635 493.04C836.251 493.04 836.743 492.764 837.111 492.212C837.479 491.652 837.663 490.796 837.663 489.644C837.663 488.5 837.479 487.652 837.111 487.1C836.743 486.548 836.251 486.272 835.635 486.272C835.019 486.272 834.527 486.548 834.159 487.1C833.791 487.652 833.607 488.5 833.607 489.644C833.607 490.796 833.791 491.652 834.159 492.212C834.527 492.764 835.019 493.04 835.635 493.04ZM843.815 494.156C843.023 494.156 842.367 493.972 841.847 493.604C841.327 493.236 840.939 492.716 840.683 492.044C840.427 491.364 840.299 490.564 840.299 489.644C840.299 488.724 840.427 487.928 840.683 487.256C840.939 486.584 841.327 486.064 841.847 485.696C842.367 485.328 843.023 485.144 843.815 485.144C844.607 485.144 845.263 485.328 845.783 485.696C846.303 486.064 846.691 486.584 846.947 487.256C847.203 487.928 847.331 488.724 847.331 489.644C847.331 490.564 847.203 491.364 846.947 492.044C846.691 492.716 846.303 493.236 845.783 493.604C845.263 493.972 844.607 494.156 843.815 494.156ZM843.815 493.04C844.431 493.04 844.923 492.764 845.291 492.212C845.659 491.652 845.843 490.796 845.843 489.644C845.843 488.5 845.659 487.652 845.291 487.1C844.923 486.548 844.431 486.272 843.815 486.272C843.199 486.272 842.707 486.548 842.339 487.1C841.971 487.652 841.787 488.5 841.787 489.644C841.787 490.796 841.971 491.652 842.339 492.212C842.707 492.764 843.199 493.04 843.815 493.04ZM851.994 494.156C851.202 494.156 850.546 493.972 850.026 493.604C849.506 493.236 849.118 492.716 848.862 492.044C848.606 491.364 848.478 490.564 848.478 489.644C848.478 488.724 848.606 487.928 848.862 487.256C849.118 486.584 849.506 486.064 850.026 485.696C850.546 485.328 851.202 485.144 851.994 485.144C852.786 485.144 853.442 485.328 853.962 485.696C854.482 486.064 854.87 486.584 855.126 487.256C855.382 487.928 855.51 488.724 855.51 489.644C855.51 490.564 855.382 491.364 855.126 492.044C854.87 492.716 854.482 493.236 853.962 493.604C853.442 493.972 852.786 494.156 851.994 494.156ZM851.994 493.04C852.61 493.04 853.102 492.764 853.47 492.212C853.838 491.652 854.022 490.796 854.022 489.644C854.022 488.5 853.838 487.652 853.47 487.1C853.102 486.548 852.61 486.272 851.994 486.272C851.378 486.272 850.886 486.548 850.518 487.1C850.15 487.652 849.966 488.5 849.966 489.644C849.966 490.796 850.15 491.652 850.518 492.212C850.886 492.764 851.378 493.04 851.994 493.04ZM862.184 495.116V494.132C861.552 494.084 861.02 493.928 860.588 493.664C860.156 493.392 859.828 493.048 859.604 492.632C859.38 492.208 859.264 491.748 859.256 491.252H860.684C860.7 491.74 860.836 492.14 861.092 492.452C861.348 492.756 861.712 492.94 862.184 493.004V490.148L861.836 490.052C861.412 489.94 861.02 489.776 860.66 489.56C860.3 489.344 860.012 489.068 859.796 488.732C859.58 488.396 859.472 487.992 859.472 487.52C859.472 487.064 859.592 486.668 859.832 486.332C860.08 485.996 860.408 485.728 860.816 485.528C861.232 485.32 861.692 485.196 862.196 485.156V484.184H862.916V485.156C863.484 485.204 863.968 485.348 864.368 485.588C864.768 485.82 865.076 486.12 865.292 486.488C865.516 486.848 865.64 487.252 865.664 487.7H864.236C864.188 487.316 864.056 487.004 863.84 486.764C863.624 486.516 863.316 486.364 862.916 486.308V488.96L863.012 488.984C863.516 489.112 863.984 489.272 864.416 489.464C864.848 489.656 865.192 489.916 865.448 490.244C865.712 490.572 865.844 491.012 865.844 491.564C865.844 492.068 865.716 492.508 865.46 492.884C865.204 493.252 864.852 493.544 864.404 493.76C863.964 493.968 863.464 494.092 862.904 494.132V495.116H862.184ZM864.428 491.72C864.428 491.336 864.304 491.044 864.056 490.844C863.808 490.644 863.424 490.472 862.904 490.328V493.016C863.392 492.968 863.768 492.828 864.032 492.596C864.296 492.364 864.428 492.072 864.428 491.72ZM860.876 487.484C860.876 487.772 860.968 488.02 861.152 488.228C861.344 488.428 861.692 488.608 862.196 488.768V486.284C861.78 486.332 861.456 486.464 861.224 486.68C860.992 486.888 860.876 487.156 860.876 487.484ZM866.422 494L869.878 485.3H871.318L867.85 494H866.422ZM871.887 494V487.544H874.107L875.787 492.308L877.443 487.544H879.555V494H878.163V488.9L876.375 494H875.055L873.267 488.9V494H871.887ZM880.77 488.744V487.82C881.53 487.26 882.13 486.784 882.57 486.392C883.018 485.992 883.242 485.624 883.242 485.288C883.242 485.072 883.186 484.912 883.074 484.808C882.962 484.696 882.822 484.64 882.654 484.64C882.454 484.64 882.278 484.708 882.126 484.844C881.974 484.972 881.894 485.2 881.886 485.528H880.782C880.782 484.984 880.954 484.556 881.298 484.244C881.642 483.924 882.11 483.764 882.702 483.764C883.182 483.764 883.586 483.884 883.914 484.124C884.242 484.356 884.406 484.704 884.406 485.168C884.406 485.632 884.222 486.068 883.854 486.476C883.486 486.884 882.978 487.312 882.33 487.76H884.502V488.744H880.77Z" fill="#6E6E6E"/>
<path d="M32 371.5L108 387.5L183 368L258 345L332.5 298L408 300L483.5 334L559 324.5L634.5 251.5L708.5 209.5L784 150" stroke="#1A30D6" stroke-width="2"/>
<path d="M183 368L108 387.5L32 371V489H784V150L708.5 209.5L634.5 251.5L559 324.5L483.5 334L408 300L332.5 298L258 345L183 368Z" fill="url(#paint0_linear_3885_8607)" fill-opacity="0.2"/>
<circle cx="784" cy="152" r="6" fill="#1A30D6" stroke="#F6F6F6" stroke-width="2"/>
<circle cx="709" cy="209" r="6" fill="#1A30D6" stroke="#F6F6F6" stroke-width="2"/>
<circle cx="634" cy="252" r="6" fill="#1A30D6" stroke="#F6F6F6" stroke-width="2"/>
<circle cx="559" cy="324" r="6" fill="#1A30D6" stroke="#F6F6F6" stroke-width="2"/>
<circle cx="484" cy="334" r="6" fill="#1A30D6" stroke="#F6F6F6" stroke-width="2"/>
<circle cx="408" cy="300" r="6" fill="#1A30D6" stroke="#F6F6F6" stroke-width="2"/>
<circle cx="333" cy="298" r="6" fill="#1A30D6" stroke="#F6F6F6" stroke-width="2"/>
<circle cx="258" cy="344" r="6" fill="#1A30D6" stroke="#F6F6F6" stroke-width="2"/>
<circle cx="183" cy="368" r="6" fill="#1A30D6" stroke="#F6F6F6" stroke-width="2"/>
<circle cx="108" cy="387" r="6" fill="#1A30D6" stroke="#F6F6F6" stroke-width="2"/>
<circle cx="32" cy="371" r="6" fill="#1A30D6" stroke="#F6F6F6" stroke-width="2"/>
<defs>
<linearGradient id="paint0_linear_3885_8607" x1="408" y1="150" x2="408" y2="489" gradientUnits="userSpaceOnUse">
<stop stop-color="#1A30D6"/>
<stop offset="1" stop-color="#1A30D6" stop-opacity="0"/>
</linearGradient>
</defs>
</svg>
