<svg width="48" height="48" viewBox="0 0 48 48" fill="none" xmlns="http://www.w3.org/2000/svg">
<circle cx="24" cy="24" r="24" fill="white"/>
<path fill-rule="evenodd" clip-rule="evenodd" d="M16.453 23.0269C21.1506 21.0512 24.2831 19.7487 25.8505 19.1194C30.3255 17.3225 31.2554 17.0104 31.8615 17.0001C31.9948 16.9978 32.2929 17.0297 32.4859 17.181C32.649 17.3087 32.6938 17.4812 32.7153 17.6022C32.7367 17.7233 32.7635 17.9991 32.7422 18.2146C32.4997 20.6743 31.4504 26.6433 30.9166 29.3983C30.6907 30.564 30.2459 30.9548 29.8153 30.9931C28.8795 31.0762 28.1689 30.3961 27.2626 29.8225C25.8443 28.9251 25.0431 28.3664 23.6664 27.4907C22.0755 26.4786 23.1068 25.9223 24.0135 25.0132C24.2508 24.7753 28.3739 21.1551 28.4537 20.8267C28.4637 20.7856 28.4729 20.6325 28.3787 20.5517C28.2845 20.4708 28.1454 20.4985 28.0451 20.5204C27.9028 20.5516 25.6371 21.9972 21.248 24.8573C20.6049 25.2836 20.0224 25.4913 19.5005 25.4804C18.9251 25.4684 17.8184 25.1664 16.9956 24.9082C15.9865 24.5915 15.1844 24.4241 15.2542 23.8863C15.2906 23.6062 15.6902 23.3197 16.453 23.0269Z" fill="black"/>
</svg>
